<?xml version="1.0" encoding="UTF-8" standalone="no"?>
<!-- Created with Inkscape (http://www.inkscape.org/) -->

<svg
   xmlns:dc="http://purl.org/dc/elements/1.1/"
   xmlns:cc="http://creativecommons.org/ns#"
   xmlns:rdf="http://www.w3.org/1999/02/22-rdf-syntax-ns#"
   xmlns:svg="http://www.w3.org/2000/svg"
   xmlns="http://www.w3.org/2000/svg"
   xmlns:sodipodi="http://sodipodi.sourceforge.net/DTD/sodipodi-0.dtd"
   xmlns:inkscape="http://www.inkscape.org/namespaces/inkscape"
   width="225.77779mm"
   height="169.33333mm"
   viewBox="0 0 800.00003 599.99998"
   id="svg5931"
   version="1.1"
   inkscape:version="0.91 r13725"
   sodipodi:docname="first-slide.svg">
  <defs
     id="defs5933" />
  <sodipodi:namedview
     id="base"
     pagecolor="#ffffff"
     bordercolor="#666666"
     borderopacity="1.0"
     inkscape:pageopacity="0.0"
     inkscape:pageshadow="2"
     inkscape:zoom="1.4"
     inkscape:cx="517.95956"
     inkscape:cy="305.26103"
     inkscape:document-units="px"
     inkscape:current-layer="layer1"
     showgrid="false"
     fit-margin-top="0"
     fit-margin-left="0"
     fit-margin-right="0"
     fit-margin-bottom="0"
     inkscape:window-width="1920"
     inkscape:window-height="1016"
     inkscape:window-x="0"
     inkscape:window-y="27"
     inkscape:window-maximized="1" />
  <metadata
     id="metadata5936">
    <rdf:RDF>
      <cc:Work
         rdf:about="">
        <dc:format>image/svg+xml</dc:format>
        <dc:type
           rdf:resource="http://purl.org/dc/dcmitype/StillImage" />
        <dc:title></dc:title>
      </cc:Work>
    </rdf:RDF>
  </metadata>
  <g
     inkscape:label="Layer 1"
     inkscape:groupmode="layer"
     id="layer1"
     transform="translate(231.42859,-238.07649)">
    <rect
       style="fill:#25c0db;fill-opacity:1;stroke:none"
       id="rect3203"
       width="800"
       height="600"
       x="-231.42856"
       y="238.07649" />
    <g
       style="fill:#ffffff;fill-opacity:1"
       transform="matrix(0.13993233,0,0,0.13993233,404.32944,714.39655)"
       id="g3213">
      <g
         style="fill:#ffffff;fill-opacity:1"
         transform="matrix(1.293235,0,0,1.293235,-4878.321,-1224.915)"
         id="g3215">
        <g
           transform="matrix(2.438586,0,0,2.438586,3659.952,1113.451)"
           style="fill:#ffffff;fill-opacity:1;fill-rule:nonzero;stroke:none"
           id="g3217">
          <g
             style="fill:#ffffff;fill-opacity:1"
             id="g3219">
            <path
               d="M 86.068,0 C 61.466,0 56.851,35.041 70.691,35.041 84.529,35.041 110.671,0 86.068,0 Z"
               style="fill:#ffffff;fill-opacity:1"
               id="path3221"
               inkscape:connector-curvature="0" />
            <path
               d="M 45.217,30.699 C 52.586,31.149 60.671,2.577 46.821,4.374 32.976,6.171 37.845,30.249 45.217,30.699 Z"
               style="fill:#ffffff;fill-opacity:1"
               id="path3223"
               inkscape:connector-curvature="0" />
            <path
               d="M 11.445,48.453 C 16.686,46.146 12.12,23.581 3.208,29.735 -5.7,35.89 6.204,50.759 11.445,48.453 Z"
               style="fill:#ffffff;fill-opacity:1"
               id="path3225"
               inkscape:connector-curvature="0" />
            <path
               d="M 26.212,36.642 C 32.451,35.37 32.793,9.778 21.667,14.369 10.539,18.961 19.978,37.916 26.212,36.642 l 0,0 z"
               style="fill:#ffffff;fill-opacity:1"
               id="path3227"
               inkscape:connector-curvature="0" />
            <path
               d="m 58.791,93.913 c 1.107,8.454 -6.202,12.629 -13.36,7.179 C 22.644,83.743 83.16,75.088 79.171,51.386 75.86,31.712 15.495,37.769 8.621,68.553 3.968,89.374 27.774,118.26 52.614,118.26 c 12.22,0 26.315,-11.034 28.952,-25.012 C 83.58,82.589 57.867,86.86 58.791,93.913 l 0,0 z"
               style="fill:#ffffff;fill-opacity:1"
               id="path3229"
               inkscape:connector-curvature="0" />
          </g>
        </g>
        <g
           style="fill:#ffffff;fill-opacity:1"
           id="g3231">
          <path
             d="m 4176.2963,1214.4401 c -15.1078,0.4069 -27.0386,5.8367 -35.8126,16.25 -9.0861,10.8369 -13.6562,25.8104 -13.6562,44.9063 0,19.0432 4.5703,33.9757 13.6562,44.8124 9.1305,10.8369 21.6664,16.25 37.6563,16.25 16.034,0 28.6014,-5.4131 37.6875,-16.25 9.0859,-10.8367 13.6251,-25.7692 13.625,-44.8124 -1e-4,-19.0959 -4.5391,-34.0694 -13.625,-44.9063 -9.0861,-10.8366 -21.6536,-16.2499 -37.6875,-16.25 -0.6246,0 -1.2296,-0.016 -1.8437,0 z m 1.125,22 c 0.2415,-0.01 0.4737,0 0.7187,0 7.8833,10e-5 13.9919,3.4114 18.3125,10.25 4.3203,6.8388 6.4999,16.4913 6.5,28.9063 0,12.3623 -2.1799,21.9427 -6.5,28.7812 -4.3204,6.8389 -10.4293,10.2812 -18.3125,10.2812 -7.8391,0 -13.8983,-3.4423 -18.2187,-10.2812 -4.3204,-6.8385 -6.4999,-16.4189 -6.5,-28.7812 0,-12.4149 2.1798,-22.0675 6.5,-28.9063 4.1852,-6.6249 10.0123,-10.0428 17.5,-10.25 z"
             style="font-style:normal;font-variant:normal;font-weight:bold;font-stretch:normal;font-size:148.699646px;line-height:125%;font-family:'Bitstream Vera Sans';text-align:start;writing-mode:lr-tb;text-anchor:start;fill:#ffffff;fill-opacity:1;stroke:none"
             id="path3233"
             inkscape:connector-curvature="0" />
          <path
             d="m 4005.6293,1325.612 c -13.3076,11.1757 -33.1067,11.0472 -41.3549,11.0472 -16.6133,0 -29.7747,-5.471 -39.4842,-16.413 -9.7097,-10.9946 -14.5644,-25.8819 -14.5644,-44.6622 0,-18.9906 4.9438,-33.9305 14.8316,-44.82 9.8878,-10.8892 23.4277,-16.3339 40.62,-16.334 6.6363,10e-5 12.9831,0.7366 19.0406,2.2094 6.1019,1.473 11.8475,3.6562 17.2368,6.5494 l -6.921,20.4608 c -3.0298,-1.6586 -6.4987,-3.2932 -9.7145,-4.4424 -5.4784,-1.8411 -10.979,-2.7617 -16.5018,-2.7618 -10.2442,10e-5 -18.15,3.3932 -23.7173,10.1792 -5.523,6.7336 -8.2844,16.3867 -8.2844,28.9594 0,12.4676 2.6723,22.0945 8.0172,28.8806 5.3446,6.7861 13.3768,10.1791 22.7818,10.1791 9.5548,0 15.4728,-2.4084 18.6291,-4.9461 l 0,-20.3835 -20.7001,0 0,-20.3584 40.0855,0"
             style="font-style:normal;font-variant:normal;font-weight:bold;font-stretch:normal;font-size:148.699646px;line-height:125%;font-family:'Bitstream Vera Sans';text-align:start;writing-mode:lr-tb;text-anchor:start;fill:#ffffff;fill-opacity:1;stroke:none"
             id="path3235"
             inkscape:connector-curvature="0" />
          <path
             d="m 4023.2108,1216.5605 16.2279,0 51.2775,70.8022 0,-70.8022 21.8853,0 0,117.8103 -16.2279,0 -51.2774,-70.8022 0,70.8022 -21.8854,0 0,-117.8103"
             style="font-style:normal;font-variant:normal;font-weight:bold;font-stretch:normal;font-size:148.699646px;line-height:125%;font-family:'Bitstream Vera Sans';text-align:start;writing-mode:lr-tb;text-anchor:start;fill:#ffffff;fill-opacity:1;stroke:none"
             id="path3237"
             inkscape:connector-curvature="0" />
          <path
             d="m 4246.3361,1216.5605 32.7366,0 22.7151,73.5479 22.8487,-73.5479 27.6698,0 12.5,117.8103 -24.3186,0 -7.5,-73.668 -22.9823,74.0213 -16.3015,0 -22.9824,-76.5213 -7.5,76.168 -24.3854,0 12.5,-117.8103"
             style="font-style:normal;font-variant:normal;font-weight:bold;font-stretch:normal;font-size:148.699646px;line-height:125%;font-family:'Bitstream Vera Sans';text-align:start;writing-mode:lr-tb;text-anchor:start;fill:#ffffff;fill-opacity:1;stroke:none"
             id="path3239"
             inkscape:connector-curvature="0" />
          <path
             d="m 4382.3597,1216.5605 69.4147,0 0,22.9624 -43.6933,0 0,24.4365 33.5877,0 0,20.4623 -33.5877,0 0,26.9868 45.1631,0 0,22.9623 -70.8845,0 0,-117.8103"
             style="font-style:normal;font-variant:normal;font-weight:bold;font-stretch:normal;font-size:148.699646px;line-height:125%;font-family:'Bitstream Vera Sans';text-align:start;writing-mode:lr-tb;text-anchor:start;fill:#ffffff;fill-opacity:1;stroke:none"
             id="path3241"
             inkscape:connector-curvature="0" />
          <text
             x="4474.6182"
             y="1215.743"
             style="font-style:normal;font-weight:normal;font-size:30.68958855px;font-family:'Bitstream Vera Sans';fill:#ffffff;fill-opacity:1;stroke:none"
             id="text3243"
             xml:space="preserve"><tspan
               x="4474.6182"
               y="1215.743"
               style="letter-spacing:11.06259632;fill:#ffffff;fill-opacity:1"
               id="tspan3245"><tspan
                 style="letter-spacing:0.2523815;fill:#ffffff;fill-opacity:1"
                 id="tspan3247">TM</tspan></tspan></text>
        </g>
      </g>
    </g>
    <circle
       r="15.559573"
       cy="775.0307"
       cx="49.240086"
       id="path3041"
       style="color:#000000;display:inline;overflow:visible;visibility:visible;fill:#ffffff;fill-opacity:1;fill-rule:nonzero;stroke:none;stroke-width:3;marker:none" />
    <circle
       r="15.559573"
       cy="778.66522"
       cx="-74.788116"
       id="path3045"
       style="color:#000000;display:inline;overflow:visible;visibility:visible;fill:#ffffff;fill-opacity:1;fill-rule:nonzero;stroke:none;stroke-width:3;marker:none" />
    <rect
       y="735.13611"
       x="33.681797"
       height="41.434444"
       width="31.119164"
       id="rect3049"
       style="color:#000000;display:inline;overflow:visible;visibility:visible;fill:#ffffff;fill-opacity:1;fill-rule:nonzero;stroke:none;stroke-width:3;marker:none" />
    <rect
       y="762.87164"
       x="22.917513"
       height="3.9471457"
       width="52.787258"
       id="rect3051"
       style="color:#000000;display:inline;overflow:visible;visibility:visible;fill:#ffffff;fill-opacity:1;fill-rule:nonzero;stroke:none;stroke-width:3;marker:none" />
    <path
       inkscape:connector-curvature="0"
       sodipodi:nodetypes="ccccc"
       id="path3053"
       d="m -27.622557,769.70992 30.3641,0 c 0.5069,3.72395 1.0891,7.42765 3.4013,10.67226 l -37.1666,0 c 2.5296,-3.64342 2.7599,-7.14522 3.4012,-10.67226 z"
       style="color:#000000;display:inline;overflow:visible;visibility:visible;fill:#ffffff;fill-opacity:1;fill-rule:nonzero;stroke:none;stroke-width:3;marker:none" />
    <circle
       r="15.559573"
       cy="773.5545"
       cx="-12.316313"
       id="path3055"
       style="color:#000000;display:inline;overflow:visible;visibility:visible;fill:#ffffff;fill-opacity:1;fill-rule:nonzero;stroke:none;stroke-width:3;marker:none" />
    <ellipse
       ry="24.384163"
       rx="33.311451"
       cy="725.28888"
       cx="-126.99374"
       style="fill:#ffffff;fill-opacity:1;stroke:none"
       id="path3057" />
    <path
       inkscape:connector-curvature="0"
       style="fill:#ffffff;fill-opacity:1;stroke:none"
       d="m -112.06126,712.88946 9.9592,50.66695 -30.0128,-28.67987"
       id="path3059" />
    <ellipse
       ry="28.786776"
       rx="39.325905"
       cy="732.33307"
       cx="-123.95523"
       transform="scale(-1,1)"
       id="path3061"
       style="fill:#ffffff;fill-opacity:1;stroke:none" />
    <path
       inkscape:connector-curvature="0"
       id="path3063"
       d="M 107.17084,721.56053 84.034143,767.72367 120.61954,748.10704"
       style="fill:#ffffff;fill-opacity:1;stroke:none" />
    <g
       id="g10146"
       transform="translate(-373.92856,1421.8669)">
      <path
         sodipodi:nodetypes="sssccccss"
         inkscape:connector-curvature="0"
         id="rect3047"
         d="m 283.90758,-625.48504 30.15962,0 c 4.95986,0 8.95281,3.99295 8.95281,8.9528 l 0,32.72977 -8.95281,0 -30.15962,0 -8.95281,0 0,-32.72977 c 0,-4.95985 3.99296,-8.9528 8.95281,-8.9528 z"
         style="color:#000000;display:inline;overflow:visible;visibility:visible;fill:#ffffff;fill-opacity:1;fill-rule:nonzero;stroke:none;stroke-width:3;marker:none" />
      <path
         style="color:#000000;display:inline;overflow:visible;visibility:visible;fill:#ffffff;fill-opacity:1;fill-rule:nonzero;stroke:none;stroke-width:3;marker:none"
         d="m 346.63439,-631.48504 30.15962,0 c 4.95986,0 8.95281,3.99295 8.95281,8.9528 l 0,38.72977 -8.95281,0 -30.15962,0 -8.95281,0 0,-38.72977 c 0,-4.95985 3.99296,-8.9528 8.95281,-8.9528 z"
         id="path4216"
         inkscape:connector-curvature="0"
         sodipodi:nodetypes="sssccccss" />
      <path
         sodipodi:nodetypes="sssccccss"
         inkscape:connector-curvature="0"
         id="path4218"
         d="m 407.93615,-629.48504 30.15962,0 c 4.95986,0 8.95281,3.99295 8.95281,8.9528 l 0,36.72977 -8.95281,0 -30.15962,0 -8.95281,0 0,-36.72977 c 0,-4.95985 3.99296,-8.9528 8.95281,-8.9528 z"
         style="color:#000000;display:inline;overflow:visible;visibility:visible;fill:#ffffff;fill-opacity:1;fill-rule:nonzero;stroke:none;stroke-width:3;marker:none" />
      <g
         style="fill:#ffffff;fill-opacity:1"
         transform="translate(-1560,-1476)"
         id="g10048">
        <g
           style="fill:#ffffff;fill-opacity:1"
           id="g10050"
           transform="matrix(0.9139477,0,0,0.9139477,1581.2401,188.283)">
          <path
             style="fill:#ffffff;fill-opacity:1;fill-rule:evenodd;stroke:none"
             d="m 132.76777,766.19312 c -0.65852,-1.7926 2.49963,6.3178 2.01802,-12.57116 0.21148,11.82215 3.575,6.28084 1.94223,11.99228 l 5.73539,-11.39599 c -1.94212,10.27065 -1.92745,12.15991 -0.57873,10.67757 1.87816,-6.02595 3.38131,-4.19413 3.24795,-10.5608 l 1.77027,10.04729 c 1.89189,-2.96131 2.02027,4.57967 3.91216,-8.88513 l 2.1419,9.25675 3.02702,-9.67567 c 0.56748,6.05405 -1.96077,3.10811 3.29054,9.16216 -0.17022,-5.30125 2.21962,-2.16734 2.02858,-9.50676 l 1.1419,9.5 4.1554,-8.49999 1.63514,8.41215 c 3.17962,-4.99417 2.80503,-3.51768 3.28378,-9.41216 l 0.87838,9.38514 2.17567,-12.14189 c -1.1303,9.54676 0.7833,0.70613 2.48649,12.14189 3.69217,-4.40291 4.76696,-3.59495 5.43243,-9.00676 l 0.37162,9 2.81757,-12.1081 c -1.15394,13.11712 1.08559,-1.01577 1.72297,12.10134 1.51351,-2.28116 2.27703,-3.83323 3.79054,-8.99324 l 0.49324,8.10811 2.66892,-10.21621 c -0.56215,8.88048 0.83634,3.82398 2.76352,10.3581 2.42786,-2.8382 4.37807,-1.29238 5.80405,-10.14189 -0.0702,6.95114 -1.0316,7.90106 -0.16215,12.97297 l 0,4 -69.9948,0 0,-4 0,0 z"
             id="path10052"
             sodipodi:nodetypes="cccccccccccccccccccccccccccccccc"
             inkscape:connector-curvature="0" />
          <path
             sodipodi:nodetypes="cccccccccccccccccccccccccccccccc"
             id="path10054"
             d="m 269.76777,766.19312 c -0.65852,-1.7926 2.49963,6.3178 2.01802,-12.57116 0.21148,11.82215 3.575,6.28084 1.94223,11.99228 l 5.73539,-11.39599 c -1.94212,10.27065 -1.92745,12.15991 -0.57873,10.67757 1.87816,-6.02595 3.38131,-4.19413 3.24795,-10.5608 l 1.77027,10.04729 c 1.89189,-2.96131 2.02027,4.57967 3.91216,-8.88513 l 2.1419,9.25675 3.02702,-9.67567 c 0.56748,6.05405 -1.96077,3.10811 3.29054,9.16216 -0.17022,-5.30125 2.21962,-2.16734 2.02858,-9.50676 l 1.1419,9.5 4.1554,-8.49999 1.63514,8.41215 c 3.17962,-4.99417 2.80503,-3.51768 3.28378,-9.41216 l 0.87838,9.38514 2.17567,-12.14189 c -1.1303,9.54676 0.7833,0.70613 2.48649,12.14189 3.69217,-4.40291 4.76696,-3.59495 5.43243,-9.00676 l 0.37162,9 2.81757,-12.1081 c -1.15394,13.11712 1.08559,-1.01577 1.72297,12.10134 1.51351,-2.28116 2.27703,-3.83323 3.79054,-8.99324 l 0.49324,8.10811 2.66892,-10.21621 c -0.56215,8.88048 0.83634,3.82398 2.76352,10.3581 2.42786,-2.8382 4.37807,-1.29238 5.80405,-10.14189 -0.0702,6.95114 -1.0316,7.90106 -0.16215,12.97297 l 0,4 -69.9948,0 0,-4 0,0 z"
             style="fill:#ffffff;fill-opacity:1;fill-rule:evenodd;stroke:none"
             inkscape:connector-curvature="0" />
          <path
             sodipodi:nodetypes="cccccccccccccccccccccccccccccccc"
             id="path10056"
             d="m 365.76777,766.19312 c -0.65852,-1.7926 2.49963,6.3178 2.01802,-12.57116 0.21148,11.82215 3.575,6.28084 1.94223,11.99228 l 5.73539,-11.39599 c -1.94212,10.27065 -1.92745,12.15991 -0.57873,10.67757 1.87816,-6.02595 3.38131,-4.19413 3.24795,-10.5608 l 1.77027,10.04729 c 1.89189,-2.96131 2.02027,4.57967 3.91216,-8.88513 l 2.1419,9.25675 3.02702,-9.67567 c 0.56748,6.05405 -1.96077,3.10811 3.29054,9.16216 -0.17022,-5.30125 2.21962,-2.16734 2.02858,-9.50676 l 1.1419,9.5 4.1554,-8.49999 1.63514,8.41215 c 3.17962,-4.99417 2.80503,-3.51768 3.28378,-9.41216 l 0.87838,9.38514 2.17567,-12.14189 c -1.1303,9.54676 0.7833,0.70613 2.48649,12.14189 3.69217,-4.40291 4.76696,-3.59495 5.43243,-9.00676 l 0.37162,9 2.81757,-12.1081 c -1.15394,13.11712 1.08559,-1.01577 1.72297,12.10134 1.51351,-2.28116 2.27703,-3.83323 3.79054,-8.99324 l 0.49324,8.10811 2.66892,-10.21621 c -0.56215,8.88048 0.83634,3.82398 2.76352,10.3581 2.42786,-2.8382 4.37807,-1.29238 5.80405,-10.14189 -0.0702,6.95114 -1.0316,7.90106 -0.16215,12.97297 l 0,4 -69.9948,0 0,-4 0,0 z"
             style="fill:#ffffff;fill-opacity:1;fill-rule:evenodd;stroke:none"
             inkscape:connector-curvature="0" />
          <path
             style="fill:#ffffff;fill-opacity:1;fill-rule:evenodd;stroke:none"
             d="m 500.76777,766.19312 c -0.65852,-1.7926 2.49963,6.3178 2.01802,-12.57116 0.21148,11.82215 3.575,6.28084 1.94223,11.99228 l 5.73539,-11.39599 c -1.94212,10.27065 -1.92745,12.15991 -0.57873,10.67757 1.87816,-6.02595 3.38131,-4.19413 3.24795,-10.5608 l 1.77027,10.04729 c 1.89189,-2.96131 2.02027,4.57967 3.91216,-8.88513 l 2.1419,9.25675 3.02702,-9.67567 c 0.56748,6.05405 -1.96077,3.10811 3.29054,9.16216 -0.17022,-5.30125 2.21962,-2.16734 2.02858,-9.50676 l 1.1419,9.5 4.1554,-8.49999 1.63514,8.41215 c 3.17962,-4.99417 2.80503,-3.51768 3.28378,-9.41216 l 0.87838,9.38514 2.17567,-12.14189 c -1.1303,9.54676 0.7833,0.70613 2.48649,12.14189 3.69217,-4.40291 4.76696,-3.59495 5.43243,-9.00676 l 0.37162,9 2.81757,-12.1081 c -1.15394,13.11712 1.08559,-1.01577 1.72297,12.10134 1.51351,-2.28116 2.27703,-3.83323 3.79054,-8.99324 l 0.49324,8.10811 2.66892,-10.21621 c -0.56215,8.88048 0.83634,3.82398 2.76352,10.3581 2.42786,-2.8382 4.37807,-1.29238 5.80405,-10.14189 -0.0702,6.95114 -1.0316,7.90106 -0.16215,12.97297 l 0,4 -69.9948,0 0,-4 0,0 z"
             id="path10058"
             sodipodi:nodetypes="cccccccccccccccccccccccccccccccc"
             inkscape:connector-curvature="0" />
          <path
             style="fill:#ffffff;fill-opacity:1;fill-rule:evenodd;stroke:none"
             d="m 569.76777,766.19312 c -0.65852,-1.7926 2.49963,6.3178 2.01802,-12.57116 0.21148,11.82215 3.575,6.28084 1.94223,11.99228 l 5.73539,-11.39599 c -1.94212,10.27065 -1.92745,12.15991 -0.57873,10.67757 1.87816,-6.02595 3.38131,-4.19413 3.24795,-10.5608 l 1.77027,10.04729 c 1.89189,-2.96131 2.02027,4.57967 3.91216,-8.88513 l 2.1419,9.25675 3.02702,-9.67567 c 0.56748,6.05405 -1.96077,3.10811 3.29054,9.16216 -0.17022,-5.30125 2.21962,-2.16734 2.02858,-9.50676 l 1.1419,9.5 4.1554,-8.49999 1.63514,8.41215 c 3.17962,-4.99417 2.80503,-3.51768 3.28378,-9.41216 l 0.87838,9.38514 2.17567,-12.14189 c -1.1303,9.54676 0.7833,0.70613 2.48649,12.14189 3.69217,-4.40291 4.76696,-3.59495 5.43243,-9.00676 l 0.37162,9 2.81757,-12.1081 c -1.15394,13.11712 1.08559,-1.01577 1.72297,12.10134 1.51351,-2.28116 2.27703,-3.83323 3.79054,-8.99324 l 0.49324,8.10811 2.66892,-10.21621 c -0.56215,8.88048 0.83634,3.82398 2.76352,10.3581 2.42786,-2.8382 4.37807,-1.29238 5.80405,-10.14189 -0.0702,6.95114 -1.0316,7.90106 -0.16215,12.97297 l 0,4 -69.9948,0 0,-4 0,0 z"
             id="path10060"
             sodipodi:nodetypes="cccccccccccccccccccccccccccccccc"
             inkscape:connector-curvature="0" />
          <path
             style="fill:#ffffff;fill-opacity:1;fill-rule:evenodd;stroke:none"
             d="m 429.5,767.25026 c 2.35925,-5.93554 6.38872,-16.47213 5.90711,-30.36901 1.27214,9.73819 1.18591,24.63756 -0.44686,28.83955 l 3.98539,-7.64848 c -1.94212,7.55627 -1.67745,9.31408 -0.32873,8.2235 3.87816,-4.06552 3.88131,-10.81068 2.74795,-15.3108 l 2.27027,14.19729 c 1.89189,-2.17868 2.27027,-11.52888 4.16216,-21.43513 l 1.8919,21.15675 3.02702,-14.47567 c 0.56748,4.45405 -0.96077,10.90811 1.29054,14.86216 1.43253,-0.85358 1.74603,-11.28838 2.06402,-9.21633 0.94664,6.16827 2.0924,10.9114 2.66496,8.41933 0.24167,-1.05183 1.35948,-8.01433 1.3048,-9.55976 l 2.8919,8.3 3.4054,-20.59999 c -0.0664,9.38599 0.57233,23.7147 -0.37838,21.43513 l 1.51352,2.22702 c 3.17962,-3.67428 3.30503,-9.02551 3.78378,-13.36216 l 0.37838,11.13514 5.67567,-21.99189 c -1.1303,7.02369 -3.2167,13.57844 -1.51351,21.99189 3.69217,-3.23928 5.76696,-6.87521 6.43243,-10.85676 l -0.37838,10.3 7.56757,-29.5081 c -1.15394,9.65045 -3.66441,19.3009 -3.02703,28.95134 1.51351,-1.67828 3.02703,-5.94695 4.54054,-9.74324 l -0.75676,8.90811 4.91892,-17.81621 c -0.56215,6.53349 -3.51721,13.3604 1.51352,19.2081 2.42786,-2.0881 4.62807,-5.18118 6.05405,-11.69189 -0.0702,5.11405 -1.0316,11.69864 -0.16215,15.43011 l 0,2.94286 -73,0 0,-2.94286 0,0 z"
             id="path10062"
             sodipodi:nodetypes="cccccccccccsscccccccccccccccccccccc"
             inkscape:connector-curvature="0" />
          <path
             style="fill:#ffffff;fill-opacity:1;fill-rule:evenodd;stroke:none"
             d="m 262.65401,758.40725 c 1.94212,7.34747 1.67745,9.05671 0.32873,7.99626 -3.87816,-3.95318 -3.88131,-10.51195 -2.74795,-14.88772 l -2.27027,13.80498 c -1.89189,-2.11847 -2.27027,-11.21031 -4.16216,-20.84282 l -1.8919,20.57213 -3.02702,-14.07567 c -0.56748,4.33098 0.71077,8.66196 -4.54054,12.99293 -2.83498,-1.64256 -3.97482,-5.30625 -3.78378,-10.55676 l -1.8919,10.01539 -3.4054,-20.03076 c 0.0664,9.12663 -0.57233,23.0594 0.37838,20.84282 l -1.51352,2.16548 c -3.17962,-3.57275 -3.30503,-8.77611 -3.78378,-12.99293 l -0.37838,10.82745 -5.67567,-21.3842 c 1.1303,6.82961 3.2167,13.20323 1.51351,21.3842 -3.69217,-3.14977 -5.76696,-6.68523 -6.43243,-10.55676 l 0.37838,10.01539 -7.56757,-28.69272 c 1.15394,9.38379 3.66441,18.76756 3.02703,28.15134 -1.51351,-1.63191 -3.02703,-5.78262 -4.54054,-9.47401 l 0.75676,8.66196 -4.91892,-17.32391 c 0.56215,6.35296 3.51721,12.99122 -1.51352,18.67734 -2.42786,-2.03041 -4.62807,-5.03801 -6.05405,-11.36882 0.0702,4.97274 1.0316,11.37538 0.16215,15.00374 l 0,2.86154 73,0 -9.44564,-11.78587 0,0 z"
             id="path10064"
             sodipodi:nodetypes="cccccccccccccccccccccccccccccc"
             inkscape:connector-curvature="0" />
          <path
             sodipodi:nodetypes="cccccccccccccccccccc"
             id="path10066"
             d="m 337.14466,766.86802 c 2.0486,-5.93554 5.5475,-16.47213 5.12931,-30.36901 1.10463,9.73819 1.02975,24.63756 -0.38803,28.83955 l 3.46063,-7.64848 c -1.6864,7.55627 -1.45658,9.31408 -0.28545,8.2235 3.36752,-4.06552 3.37025,-10.81068 2.38612,-15.3108 l 1.97134,14.19729 c 1.64278,-2.17868 1.97134,-11.52888 3.61412,-21.43513 l 1.64279,21.15675 2.62844,-14.47567 c 0.49276,4.45405 -0.61718,8.90811 3.94268,13.36216 2.46169,-1.68924 3.45144,-5.45704 3.28556,-10.85676 l 1.64278,10.3 2.95701,-20.59999 c -0.0576,9.38599 0.49697,23.7147 -0.32856,21.43513 l 1.31423,2.22702 -0.4616,4.27954 -32.51137,-0.007 0,-3.31761 z"
             style="fill:#ffffff;fill-opacity:1;fill-rule:evenodd;stroke:none"
             inkscape:connector-curvature="0" />
        </g>
        <g
           style="fill:#ffffff;fill-opacity:1"
           id="g10068"
           transform="matrix(0.9139477,0,0,0.9139477,2042.6687,187.02161)">
          <path
             style="fill:#ffffff;fill-opacity:1;fill-rule:evenodd;stroke:none"
             d="m 132.76777,767.57327 c -0.65852,-1.7926 2.49963,6.3178 2.01802,-12.57116 0.21148,11.82215 3.575,6.28084 1.94223,11.99228 l 5.73539,-11.39599 c -1.94212,10.27065 -1.92745,12.15991 -0.57873,10.67757 1.87816,-6.02595 3.38131,-4.19413 3.24795,-10.5608 l 1.77027,10.04729 c 1.89189,-2.96131 2.02027,4.57967 3.91216,-8.88513 l 2.1419,9.25675 3.02702,-9.67567 c 0.56748,6.05405 -1.96077,3.10811 3.29054,9.16216 -0.17022,-5.30125 2.21962,-2.16734 2.02858,-9.50676 l 1.1419,9.5 4.1554,-8.49999 1.63514,8.41215 c 3.17962,-4.99417 2.80503,-3.51768 3.28378,-9.41216 l 0.87838,9.38514 2.17567,-12.14189 c -1.1303,9.54676 0.7833,0.70613 2.48649,12.14189 3.69217,-4.40291 4.76696,-3.59495 5.43243,-9.00676 l 0.37162,9 2.81757,-12.1081 c -1.15394,13.11712 1.08559,-1.01577 1.72297,12.10134 1.51351,-2.28116 2.27703,-3.83323 3.79054,-8.99324 l 0.49324,8.10811 2.66892,-10.21621 c -0.56215,8.88048 0.83634,3.82398 2.76352,10.3581 2.42786,-2.8382 4.37807,-1.29238 5.80405,-10.14189 -0.0702,6.95114 -1.0316,7.90106 -0.16215,12.97297 l 0,4 -69.9948,0 0,-4 0,0 z"
             id="path10070"
             sodipodi:nodetypes="cccccccccccccccccccccccccccccccc"
             inkscape:connector-curvature="0" />
          <path
             sodipodi:nodetypes="cccccccccccccccccccccccccccccccc"
             id="path10072"
             d="m 269.76777,767.57327 c -0.65852,-1.7926 2.49963,6.3178 2.01802,-12.57116 0.21148,11.82215 3.575,6.28084 1.94223,11.99228 l 5.73539,-11.39599 c -1.94212,10.27065 -1.92745,12.15991 -0.57873,10.67757 1.87816,-6.02595 3.38131,-4.19413 3.24795,-10.5608 l 1.77027,10.04729 c 1.89189,-2.96131 2.02027,4.57967 3.91216,-8.88513 l 2.1419,9.25675 3.02702,-9.67567 c 0.56748,6.05405 -1.96077,3.10811 3.29054,9.16216 -0.17022,-5.30125 2.21962,-2.16734 2.02858,-9.50676 l 1.1419,9.5 4.1554,-8.49999 1.63514,8.41215 c 3.17962,-4.99417 2.80503,-3.51768 3.28378,-9.41216 l 0.87838,9.38514 2.17567,-12.14189 c -1.1303,9.54676 0.7833,0.70613 2.48649,12.14189 3.69217,-4.40291 4.76696,-3.59495 5.43243,-9.00676 l 0.37162,9 2.81757,-12.1081 c -1.15394,13.11712 1.08559,-1.01577 1.72297,12.10134 1.51351,-2.28116 2.27703,-3.83323 3.79054,-8.99324 l 0.49324,8.10811 2.66892,-10.21621 c -0.56215,8.88048 0.83634,3.82398 2.76352,10.3581 2.42786,-2.8382 4.37807,-1.29238 5.80405,-10.14189 -0.0702,6.95114 -1.0316,7.90106 -0.16215,12.97297 l 0,4 -69.9948,0 0,-4 0,0 z"
             style="fill:#ffffff;fill-opacity:1;fill-rule:evenodd;stroke:none"
             inkscape:connector-curvature="0" />
          <path
             sodipodi:nodetypes="cccccccccccccccccccccccccccccccc"
             id="path10074"
             d="m 365.76777,767.57327 c -0.65852,-1.7926 2.49963,6.3178 2.01802,-12.57116 0.21148,11.82215 3.575,6.28084 1.94223,11.99228 l 5.73539,-11.39599 c -1.94212,10.27065 -1.92745,12.15991 -0.57873,10.67757 1.87816,-6.02595 3.38131,-4.19413 3.24795,-10.5608 l 1.77027,10.04729 c 1.89189,-2.96131 2.02027,4.57967 3.91216,-8.88513 l 2.1419,9.25675 3.02702,-9.67567 c 0.56748,6.05405 -1.96077,3.10811 3.29054,9.16216 -0.17022,-5.30125 2.21962,-2.16734 2.02858,-9.50676 l 1.1419,9.5 4.1554,-8.49999 1.63514,8.41215 c 3.17962,-4.99417 2.80503,-3.51768 3.28378,-9.41216 l 0.87838,9.38514 2.17567,-12.14189 c -1.1303,9.54676 0.7833,0.70613 2.48649,12.14189 3.69217,-4.40291 4.76696,-3.59495 5.43243,-9.00676 l 0.37162,9 2.81757,-12.1081 c -1.15394,13.11712 1.08559,-1.01577 1.72297,12.10134 1.51351,-2.28116 2.27703,-3.83323 3.79054,-8.99324 l 0.49324,8.10811 2.66892,-10.21621 c -0.56215,8.88048 0.83634,3.82398 2.76352,10.3581 2.42786,-2.8382 4.37807,-1.29238 5.80405,-10.14189 -0.0702,6.95114 -1.0316,7.90106 -0.16215,12.97297 l 0,4 -69.9948,0 0,-4 0,0 z"
             style="fill:#ffffff;fill-opacity:1;fill-rule:evenodd;stroke:none"
             inkscape:connector-curvature="0" />
          <path
             style="fill:#ffffff;fill-opacity:1;fill-rule:evenodd;stroke:none"
             d="m 429.5,768.63375 c 2.35925,-5.95166 6.38872,-16.51688 5.90711,-30.4515 1.27214,9.76464 1.18591,24.70448 -0.44686,28.91788 l 3.98539,-7.66925 c -1.94212,7.57679 -1.67745,9.33938 -0.32873,8.24584 3.87816,-4.07657 2.582,-10.56651 2.74795,-15.35239 l 2.27027,14.23585 c 0.26333,0.63504 0.56108,-7.52671 0.46437,5.02442 l -14.5995,0 z"
             id="path10076"
             sodipodi:nodetypes="cccccccccc"
             inkscape:connector-curvature="0" />
          <path
             style="fill:#ffffff;fill-opacity:1;fill-rule:evenodd;stroke:none"
             d="m 262.65401,759.7874 c 1.94212,7.34747 1.67745,9.05671 0.32873,7.99626 -3.87816,-3.95318 -3.88131,-10.51195 -2.74795,-14.88772 l -2.27027,13.80498 c -1.89189,-2.11847 -2.27027,-11.21031 -4.16216,-20.84282 l -1.8919,20.57213 -3.02702,-14.07567 c -0.56748,4.33098 0.71077,8.66196 -4.54054,12.99293 -2.83498,-1.64256 -3.97482,-5.30625 -3.78378,-10.55676 l -1.8919,10.01539 -3.4054,-20.03076 c 0.0664,9.12663 -0.57233,23.0594 0.37838,20.84282 l -1.51352,2.16548 c -3.17962,-3.57275 -3.30503,-8.77611 -3.78378,-12.99293 l -0.37838,10.82745 -5.67567,-21.3842 c 1.1303,6.82961 3.2167,13.20323 1.51351,21.3842 -3.69217,-3.14977 -5.76696,-6.68523 -6.43243,-10.55676 l 0.37838,10.01539 -7.56757,-28.69272 c 1.15394,9.38379 3.66441,18.76756 3.02703,28.15134 -1.51351,-1.63191 -3.02703,-5.78262 -4.54054,-9.47401 l 0.75676,8.66196 -4.91892,-17.32391 c 0.56215,6.35296 3.51721,12.99122 -1.51352,18.67734 -2.42786,-2.03041 -4.62807,-5.03801 -6.05405,-11.36882 0.0702,4.97274 1.0316,11.37538 0.16215,15.00374 l 0,2.86154 73,0 -9.44564,-11.78587 0,0 z"
             id="path10078"
             sodipodi:nodetypes="cccccccccccccccccccccccccccccc"
             inkscape:connector-curvature="0" />
          <path
             sodipodi:nodetypes="cccccccccccccccccccc"
             id="path10080"
             d="m 337.14466,768.24817 c 2.0486,-5.93554 5.5475,-16.47213 5.12931,-30.36901 1.10463,9.73819 1.02975,24.63756 -0.38803,28.83955 l 3.46063,-7.64847 c -1.6864,7.55627 -1.45658,9.31408 -0.28545,8.22349 3.36752,-4.06552 3.37025,-10.81068 2.38612,-15.3108 l 1.97134,14.19729 c 1.64278,-2.17868 1.97134,-11.52888 3.61412,-21.43513 l 1.64279,21.15675 2.62844,-14.47567 c 0.49276,4.45405 -0.61718,8.90811 3.94268,13.36216 2.46169,-1.68924 3.45144,-5.45704 3.28556,-10.85676 l 1.64278,10.3 2.95701,-20.59999 c -0.0576,9.38599 0.49697,23.7147 -0.32856,21.43513 l 1.31423,2.22702 -0.4616,4.27954 -32.51137,0.011 0,-3.33607 z"
             style="fill:#ffffff;fill-opacity:1;fill-rule:evenodd;stroke:none"
             inkscape:connector-curvature="0" />
        </g>
      </g>
      <path
         inkscape:connector-curvature="0"
         sodipodi:nodetypes="cccccccccccccccccccccccccccccccc"
         id="path10086"
         d="m 878.38022,-587.45656 c -0.60185,-1.63834 2.28453,5.77414 1.84436,-11.48938 0.19328,10.80482 3.26737,5.74036 1.7751,10.96031 l 5.24185,-10.41534 c -1.775,9.38684 -1.76159,11.11353 -0.52893,9.75875 1.71654,-5.50741 3.09034,-3.83322 2.96845,-9.65202 l 1.61794,9.18269 c 1.72909,-2.70648 1.84642,4.18558 3.57551,-8.12054 l 1.95758,8.46019 2.76654,-8.84306 c 0.51865,5.53308 -1.79204,2.84065 3.00738,8.37373 -0.15557,-4.84506 2.02862,-1.98083 1.85402,-8.68868 l 1.04363,8.68251 3.79782,-7.76855 1.49443,7.68826 c 2.90601,-4.56441 2.56366,-3.21497 3.00121,-8.60222 l 0.80279,8.57753 1.98845,-11.09705 c -1.03304,8.72524 0.7159,0.64536 2.27252,11.09705 3.37445,-4.02403 4.35675,-3.2856 4.96496,-8.23171 l 0.33964,8.22553 2.57511,-11.06617 c -1.05464,11.98836 0.99217,-0.92836 1.57471,11.05999 1.38327,-2.08486 2.08108,-3.50337 3.46435,-8.21935 l 0.4508,7.41039 2.43925,-9.33708 c -0.51378,8.11629 0.76437,3.49492 2.52571,9.46676 2.21894,-2.59397 4.00133,-1.18117 5.3046,-9.26916 -0.0642,6.35298 -0.94283,7.22116 -0.1482,11.85662 l 0,3.65579 -63.97158,0 0,-3.65579 0,0 z"
         style="fill:#ffffff;fill-opacity:1;fill-rule:evenodd;stroke:none" />
    </g>
  </g>
</svg>
