<?xml version="1.0" encoding="UTF-8" standalone="no"?>
<!-- Created with Inkscape (http://www.inkscape.org/) -->

<svg
   xmlns:dc="http://purl.org/dc/elements/1.1/"
   xmlns:cc="http://creativecommons.org/ns#"
   xmlns:rdf="http://www.w3.org/1999/02/22-rdf-syntax-ns#"
   xmlns:svg="http://www.w3.org/2000/svg"
   xmlns="http://www.w3.org/2000/svg"
   xmlns:sodipodi="http://sodipodi.sourceforge.net/DTD/sodipodi-0.dtd"
   xmlns:inkscape="http://www.inkscape.org/namespaces/inkscape"
   width="225.7778mm"
   height="169.33333mm"
   viewBox="0 0 800.00008 599.99998"
   id="svg4948"
   version="1.1"
   inkscape:version="0.91 r13725"
   sodipodi:docname="middle-background4.svg">
  <defs
     id="defs4950" />
  <sodipodi:namedview
     id="base"
     pagecolor="#ffffff"
     bordercolor="#666666"
     borderopacity="1.0"
     inkscape:pageopacity="0.0"
     inkscape:pageshadow="2"
     inkscape:zoom="1.979899"
     inkscape:cx="191.82483"
     inkscape:cy="-7.4924782"
     inkscape:document-units="px"
     inkscape:current-layer="layer1"
     showgrid="false"
     fit-margin-top="0"
     fit-margin-left="0"
     fit-margin-right="0"
     fit-margin-bottom="0"
     inkscape:window-width="1920"
     inkscape:window-height="1016"
     inkscape:window-x="0"
     inkscape:window-y="27"
     inkscape:window-maximized="1" />
  <metadata
     id="metadata4953">
    <rdf:RDF>
      <cc:Work
         rdf:about="">
        <dc:format>image/svg+xml</dc:format>
        <dc:type
           rdf:resource="http://purl.org/dc/dcmitype/StillImage" />
        <dc:title></dc:title>
      </cc:Work>
    </rdf:RDF>
  </metadata>
  <g
     inkscape:label="Layer 1"
     inkscape:groupmode="layer"
     id="layer1"
     transform="translate(1602.8572,661.92352)">
    <rect
       y="-661.92352"
       x="-1602.8572"
       height="600"
       width="800"
       id="rect3183"
       style="fill:#555753;fill-opacity:1;stroke:none" />
    <g
       id="g3433"
       style="fill:#d3d7cf;fill-opacity:1"
       transform="matrix(0.88276144,0,0,0.88276144,-685.86803,-117.9344)">
      <g
         transform="matrix(0.30600455,0,0,0.30600455,-274.49603,-12.841017)"
         style="fill:#d3d7cf;fill-opacity:1;fill-rule:nonzero;stroke:none"
         id="g3346">
        <g
           style="fill:#d3d7cf;fill-opacity:1"
           id="g3348">
          <path
             d="M 86.068,0 C 61.466,0 56.851,35.041 70.691,35.041 84.529,35.041 110.671,0 86.068,0 Z"
             style="fill:#d3d7cf;fill-opacity:1"
             id="path3350"
             inkscape:connector-curvature="0" />
          <path
             d="M 45.217,30.699 C 52.586,31.149 60.671,2.577 46.821,4.374 32.976,6.171 37.845,30.249 45.217,30.699 Z"
             style="fill:#d3d7cf;fill-opacity:1"
             id="path3352"
             inkscape:connector-curvature="0" />
          <path
             d="M 11.445,48.453 C 16.686,46.146 12.12,23.581 3.208,29.735 -5.7,35.89 6.204,50.759 11.445,48.453 Z"
             style="fill:#d3d7cf;fill-opacity:1"
             id="path3354"
             inkscape:connector-curvature="0" />
          <path
             d="M 26.212,36.642 C 32.451,35.37 32.793,9.778 21.667,14.369 10.539,18.961 19.978,37.916 26.212,36.642 l 0,0 z"
             style="fill:#d3d7cf;fill-opacity:1"
             id="path3356"
             inkscape:connector-curvature="0" />
          <path
             d="m 58.791,93.913 c 1.107,8.454 -6.202,12.629 -13.36,7.179 C 22.644,83.743 83.16,75.088 79.171,51.386 75.86,31.712 15.495,37.769 8.621,68.553 3.968,89.374 27.774,118.26 52.614,118.26 c 12.22,0 26.315,-11.034 28.952,-25.012 C 83.58,82.589 57.867,86.86 58.791,93.913 l 0,0 z"
             style="fill:#d3d7cf;fill-opacity:1"
             id="path3358"
             inkscape:connector-curvature="0" />
        </g>
      </g>
      <path
         inkscape:connector-curvature="0"
         id="path3362"
         style="font-style:normal;font-variant:normal;font-weight:bold;font-stretch:normal;font-size:148.699646px;line-height:125%;font-family:'Bitstream Vera Sans';text-align:start;writing-mode:lr-tb;text-anchor:start;fill:#d3d7cf;fill-opacity:1;stroke:none"
         d="m -209.70286,-0.16845843 c -1.89579,0.0510596 -3.39292,0.73241492 -4.49392,2.03912183 -1.14017,1.3598621 -1.71364,3.2388031 -1.71364,5.635041 0,2.3896249 0.5735,4.2634206 1.71364,5.6232576 1.14573,1.359863 2.71879,2.039122 4.72527,2.039122 2.01202,0 3.58903,-0.679259 4.7292,-2.039122 1.14014,-1.359837 1.70974,-3.2336327 1.70972,-5.6232576 -1e-5,-2.3962379 -0.56958,-4.2751789 -1.70972,-5.635041 -1.14017,-1.35982447 -2.71719,-2.03910928 -4.7292,-2.03912183 -0.0784,0 -0.15429,-0.002008 -0.23135,0 z m 0.14117,2.76065723 c 0.0303,-0.00125 0.0594,0 0.0902,0 0.98924,1.26e-5 1.75577,0.4280776 2.29794,1.2862153 0.54213,0.8581629 0.81563,2.0694012 0.81565,3.6272903 0,1.5512761 -0.27355,2.7534666 -0.81565,3.6115926 -0.54214,0.858175 -1.30872,1.29013 -2.29794,1.29013 -0.98368,0 -1.74402,-0.431955 -2.28616,-1.29013 -0.54214,-0.858126 -0.81563,-2.0603165 -0.81565,-3.6115926 0,-1.5578765 0.27353,-2.7691274 0.81565,-3.6272903 0.52518,-0.8313217 1.25639,-1.2602149 2.19598,-1.2862153 z" />
      <path
         inkscape:connector-curvature="0"
         id="path3364"
         style="font-style:normal;font-variant:normal;font-weight:bold;font-stretch:normal;font-size:148.699646px;line-height:125%;font-family:'Bitstream Vera Sans';text-align:start;writing-mode:lr-tb;text-anchor:start;fill:#d3d7cf;fill-opacity:1;stroke:none"
         d="m -231.11891,13.781883 c -1.6699,1.402376 -4.15438,1.386251 -5.1894,1.386251 -2.08471,0 -3.73626,-0.686525 -4.95465,-2.059575 -1.21841,-1.379651 -1.8276,-3.2477755 -1.8276,-5.6044106 0,-2.3830244 0.62037,-4.2577491 1.86113,-5.6242117 1.24077,-1.36642495 2.93981,-2.04964997 5.09718,-2.04966252 0.83275,1.255e-5 1.62918,0.09243182 2.3893,0.27724528 0.76569,0.18483855 1.48667,0.45879613 2.16295,0.82184766 l -0.86848,2.56751158 c -0.38019,-0.2081284 -0.81549,-0.4132453 -1.21902,-0.5574519 -0.68745,-0.2310294 -1.37769,-0.3465504 -2.07072,-0.3465629 -1.28549,1.25e-5 -2.27754,0.4257937 -2.97615,1.277331 -0.69305,0.8449619 -1.03956,2.0562755 -1.03956,3.6339535 0,1.5644896 0.33533,2.7725156 1.00603,3.6240656 0.67067,0.85155 1.67858,1.277318 2.85876,1.277318 1.19898,0 1.9416,-0.302216 2.33766,-0.620658 l 0,-2.557812 -2.59754,0 0,-2.554662 5.03011,0" />
      <path
         inkscape:connector-curvature="0"
         id="path3366"
         style="font-style:normal;font-variant:normal;font-weight:bold;font-stretch:normal;font-size:148.699646px;line-height:125%;font-family:'Bitstream Vera Sans';text-align:start;writing-mode:lr-tb;text-anchor:start;fill:#d3d7cf;fill-opacity:1;stroke:none"
         d="m -228.91271,0.09761874 2.03635,0 6.43453,8.88457296 0,-8.88457296 2.74626,0 0,14.78335726 -2.03634,0 -6.43452,-8.8845731 0,8.8845731 -2.74628,0 0,-14.78335726" />
      <path
         inkscape:connector-curvature="0"
         id="path3368"
         style="font-style:normal;font-variant:normal;font-weight:bold;font-stretch:normal;font-size:148.699646px;line-height:125%;font-family:'Bitstream Vera Sans';text-align:start;writing-mode:lr-tb;text-anchor:start;fill:#d3d7cf;fill-opacity:1;stroke:none"
         d="m -200.91396,0.09761874 4.10794,0 2.85039,9.22911556 2.86715,-9.22911556 3.47213,0 1.56856,14.78335726 -3.05161,0 -0.94113,-9.2441863 -2.88392,9.2885203 -2.04559,0 -2.88393,-9.6022314 -0.94113,9.5578974 -3.05999,0 1.56855,-14.78335726" />
      <path
         inkscape:connector-curvature="0"
         id="path3370"
         style="font-style:normal;font-variant:normal;font-weight:bold;font-stretch:normal;font-size:148.699646px;line-height:125%;font-family:'Bitstream Vera Sans';text-align:start;writing-mode:lr-tb;text-anchor:start;fill:#d3d7cf;fill-opacity:1;stroke:none"
         d="m -183.84511,0.09761874 8.71046,0 0,2.88142346 -5.48283,0 0,3.0664 4.21473,0 0,2.5676999 -4.21473,0 0,3.3864229 5.66727,0 0,2.881411 -8.8949,0 0,-14.78335726" />
    </g>
    <g
       id="g10234"
       transform="translate(-1745.3571,441.86689)"
       style="fill:#d3d7cf;fill-opacity:1">
      <g
         id="g10177"
         transform="translate(-1560,-1396)"
         style="fill:#d3d7cf;fill-opacity:1">
        <g
           transform="matrix(0.9139477,0,0,0.9139477,1581.2401,188.283)"
           id="g10179"
           style="fill:#d3d7cf;fill-opacity:1">
          <path
             inkscape:connector-curvature="0"
             sodipodi:nodetypes="cccccccccccccccccccccccccccccccc"
             id="path10181"
             d="m 132.76777,766.19312 c -0.65852,-1.7926 2.49963,6.3178 2.01802,-12.57116 0.21148,11.82215 3.575,6.28084 1.94223,11.99228 l 5.73539,-11.39599 c -1.94212,10.27065 -1.92745,12.15991 -0.57873,10.67757 1.87816,-6.02595 3.38131,-4.19413 3.24795,-10.5608 l 1.77027,10.04729 c 1.89189,-2.96131 2.02027,4.57967 3.91216,-8.88513 l 2.1419,9.25675 3.02702,-9.67567 c 0.56748,6.05405 -1.96077,3.10811 3.29054,9.16216 -0.17022,-5.30125 2.21962,-2.16734 2.02858,-9.50676 l 1.1419,9.5 4.1554,-8.49999 1.63514,8.41215 c 3.17962,-4.99417 2.80503,-3.51768 3.28378,-9.41216 l 0.87838,9.38514 2.17567,-12.14189 c -1.1303,9.54676 0.7833,0.70613 2.48649,12.14189 3.69217,-4.40291 4.76696,-3.59495 5.43243,-9.00676 l 0.37162,9 2.81757,-12.1081 c -1.15394,13.11712 1.08559,-1.01577 1.72297,12.10134 1.51351,-2.28116 2.27703,-3.83323 3.79054,-8.99324 l 0.49324,8.10811 2.66892,-10.21621 c -0.56215,8.88048 0.83634,3.82398 2.76352,10.3581 2.42786,-2.8382 4.37807,-1.29238 5.80405,-10.14189 -0.0702,6.95114 -1.0316,7.90106 -0.16215,12.97297 l 0,4 -69.9948,0 0,-4 0,0 z"
             style="fill:#d3d7cf;fill-opacity:1;fill-rule:evenodd;stroke:none" />
          <path
             inkscape:connector-curvature="0"
             style="fill:#d3d7cf;fill-opacity:1;fill-rule:evenodd;stroke:none"
             d="m 269.76777,766.19312 c -0.65852,-1.7926 2.49963,6.3178 2.01802,-12.57116 0.21148,11.82215 3.575,6.28084 1.94223,11.99228 l 5.73539,-11.39599 c -1.94212,10.27065 -1.92745,12.15991 -0.57873,10.67757 1.87816,-6.02595 3.38131,-4.19413 3.24795,-10.5608 l 1.77027,10.04729 c 1.89189,-2.96131 2.02027,4.57967 3.91216,-8.88513 l 2.1419,9.25675 3.02702,-9.67567 c 0.56748,6.05405 -1.96077,3.10811 3.29054,9.16216 -0.17022,-5.30125 2.21962,-2.16734 2.02858,-9.50676 l 1.1419,9.5 4.1554,-8.49999 1.63514,8.41215 c 3.17962,-4.99417 2.80503,-3.51768 3.28378,-9.41216 l 0.87838,9.38514 2.17567,-12.14189 c -1.1303,9.54676 0.7833,0.70613 2.48649,12.14189 3.69217,-4.40291 4.76696,-3.59495 5.43243,-9.00676 l 0.37162,9 2.81757,-12.1081 c -1.15394,13.11712 1.08559,-1.01577 1.72297,12.10134 1.51351,-2.28116 2.27703,-3.83323 3.79054,-8.99324 l 0.49324,8.10811 2.66892,-10.21621 c -0.56215,8.88048 0.83634,3.82398 2.76352,10.3581 2.42786,-2.8382 4.37807,-1.29238 5.80405,-10.14189 -0.0702,6.95114 -1.0316,7.90106 -0.16215,12.97297 l 0,4 -69.9948,0 0,-4 0,0 z"
             id="path10183"
             sodipodi:nodetypes="cccccccccccccccccccccccccccccccc" />
          <path
             inkscape:connector-curvature="0"
             style="fill:#d3d7cf;fill-opacity:1;fill-rule:evenodd;stroke:none"
             d="m 365.76777,766.19312 c -0.65852,-1.7926 2.49963,6.3178 2.01802,-12.57116 0.21148,11.82215 3.575,6.28084 1.94223,11.99228 l 5.73539,-11.39599 c -1.94212,10.27065 -1.92745,12.15991 -0.57873,10.67757 1.87816,-6.02595 3.38131,-4.19413 3.24795,-10.5608 l 1.77027,10.04729 c 1.89189,-2.96131 2.02027,4.57967 3.91216,-8.88513 l 2.1419,9.25675 3.02702,-9.67567 c 0.56748,6.05405 -1.96077,3.10811 3.29054,9.16216 -0.17022,-5.30125 2.21962,-2.16734 2.02858,-9.50676 l 1.1419,9.5 4.1554,-8.49999 1.63514,8.41215 c 3.17962,-4.99417 2.80503,-3.51768 3.28378,-9.41216 l 0.87838,9.38514 2.17567,-12.14189 c -1.1303,9.54676 0.7833,0.70613 2.48649,12.14189 3.69217,-4.40291 4.76696,-3.59495 5.43243,-9.00676 l 0.37162,9 2.81757,-12.1081 c -1.15394,13.11712 1.08559,-1.01577 1.72297,12.10134 1.51351,-2.28116 2.27703,-3.83323 3.79054,-8.99324 l 0.49324,8.10811 2.66892,-10.21621 c -0.56215,8.88048 0.83634,3.82398 2.76352,10.3581 2.42786,-2.8382 4.37807,-1.29238 5.80405,-10.14189 -0.0702,6.95114 -1.0316,7.90106 -0.16215,12.97297 l 0,4 -69.9948,0 0,-4 0,0 z"
             id="path10185"
             sodipodi:nodetypes="cccccccccccccccccccccccccccccccc" />
          <path
             inkscape:connector-curvature="0"
             sodipodi:nodetypes="cccccccccccccccccccccccccccccccc"
             id="path10187"
             d="m 500.76777,766.19312 c -0.65852,-1.7926 2.49963,6.3178 2.01802,-12.57116 0.21148,11.82215 3.575,6.28084 1.94223,11.99228 l 5.73539,-11.39599 c -1.94212,10.27065 -1.92745,12.15991 -0.57873,10.67757 1.87816,-6.02595 3.38131,-4.19413 3.24795,-10.5608 l 1.77027,10.04729 c 1.89189,-2.96131 2.02027,4.57967 3.91216,-8.88513 l 2.1419,9.25675 3.02702,-9.67567 c 0.56748,6.05405 -1.96077,3.10811 3.29054,9.16216 -0.17022,-5.30125 2.21962,-2.16734 2.02858,-9.50676 l 1.1419,9.5 4.1554,-8.49999 1.63514,8.41215 c 3.17962,-4.99417 2.80503,-3.51768 3.28378,-9.41216 l 0.87838,9.38514 2.17567,-12.14189 c -1.1303,9.54676 0.7833,0.70613 2.48649,12.14189 3.69217,-4.40291 4.76696,-3.59495 5.43243,-9.00676 l 0.37162,9 2.81757,-12.1081 c -1.15394,13.11712 1.08559,-1.01577 1.72297,12.10134 1.51351,-2.28116 2.27703,-3.83323 3.79054,-8.99324 l 0.49324,8.10811 2.66892,-10.21621 c -0.56215,8.88048 0.83634,3.82398 2.76352,10.3581 2.42786,-2.8382 4.37807,-1.29238 5.80405,-10.14189 -0.0702,6.95114 -1.0316,7.90106 -0.16215,12.97297 l 0,4 -69.9948,0 0,-4 0,0 z"
             style="fill:#d3d7cf;fill-opacity:1;fill-rule:evenodd;stroke:none" />
          <path
             inkscape:connector-curvature="0"
             sodipodi:nodetypes="cccccccccccccccccccccccccccccccc"
             id="path10189"
             d="m 569.76777,766.19312 c -0.65852,-1.7926 2.49963,6.3178 2.01802,-12.57116 0.21148,11.82215 3.575,6.28084 1.94223,11.99228 l 5.73539,-11.39599 c -1.94212,10.27065 -1.92745,12.15991 -0.57873,10.67757 1.87816,-6.02595 3.38131,-4.19413 3.24795,-10.5608 l 1.77027,10.04729 c 1.89189,-2.96131 2.02027,4.57967 3.91216,-8.88513 l 2.1419,9.25675 3.02702,-9.67567 c 0.56748,6.05405 -1.96077,3.10811 3.29054,9.16216 -0.17022,-5.30125 2.21962,-2.16734 2.02858,-9.50676 l 1.1419,9.5 4.1554,-8.49999 1.63514,8.41215 c 3.17962,-4.99417 2.80503,-3.51768 3.28378,-9.41216 l 0.87838,9.38514 2.17567,-12.14189 c -1.1303,9.54676 0.7833,0.70613 2.48649,12.14189 3.69217,-4.40291 4.76696,-3.59495 5.43243,-9.00676 l 0.37162,9 2.81757,-12.1081 c -1.15394,13.11712 1.08559,-1.01577 1.72297,12.10134 1.51351,-2.28116 2.27703,-3.83323 3.79054,-8.99324 l 0.49324,8.10811 2.66892,-10.21621 c -0.56215,8.88048 0.83634,3.82398 2.76352,10.3581 2.42786,-2.8382 4.37807,-1.29238 5.80405,-10.14189 -0.0702,6.95114 -1.0316,7.90106 -0.16215,12.97297 l 0,4 -69.9948,0 0,-4 0,0 z"
             style="fill:#d3d7cf;fill-opacity:1;fill-rule:evenodd;stroke:none" />
          <path
             inkscape:connector-curvature="0"
             sodipodi:nodetypes="cccccccccccsscccccccccccccccccccccc"
             id="path10191"
             d="m 429.5,767.25026 c 2.35925,-5.93554 6.38872,-16.47213 5.90711,-30.36901 1.27214,9.73819 1.18591,24.63756 -0.44686,28.83955 l 3.98539,-7.64848 c -1.94212,7.55627 -1.67745,9.31408 -0.32873,8.2235 3.87816,-4.06552 3.88131,-10.81068 2.74795,-15.3108 l 2.27027,14.19729 c 1.89189,-2.17868 2.27027,-11.52888 4.16216,-21.43513 l 1.8919,21.15675 3.02702,-14.47567 c 0.56748,4.45405 -0.96077,10.90811 1.29054,14.86216 1.43253,-0.85358 1.74603,-11.28838 2.06402,-9.21633 0.94664,6.16827 2.0924,10.9114 2.66496,8.41933 0.24167,-1.05183 1.35948,-8.01433 1.3048,-9.55976 l 2.8919,8.3 3.4054,-20.59999 c -0.0664,9.38599 0.57233,23.7147 -0.37838,21.43513 l 1.51352,2.22702 c 3.17962,-3.67428 3.30503,-9.02551 3.78378,-13.36216 l 0.37838,11.13514 5.67567,-21.99189 c -1.1303,7.02369 -3.2167,13.57844 -1.51351,21.99189 3.69217,-3.23928 5.76696,-6.87521 6.43243,-10.85676 l -0.37838,10.3 7.56757,-29.5081 c -1.15394,9.65045 -3.66441,19.3009 -3.02703,28.95134 1.51351,-1.67828 3.02703,-5.94695 4.54054,-9.74324 l -0.75676,8.90811 4.91892,-17.81621 c -0.56215,6.53349 -3.51721,13.3604 1.51352,19.2081 2.42786,-2.0881 4.62807,-5.18118 6.05405,-11.69189 -0.0702,5.11405 -1.0316,11.69864 -0.16215,15.43011 l 0,2.94286 -73,0 0,-2.94286 0,0 z"
             style="fill:#d3d7cf;fill-opacity:1;fill-rule:evenodd;stroke:none" />
          <path
             inkscape:connector-curvature="0"
             sodipodi:nodetypes="cccccccccccccccccccccccccccccc"
             id="path10193"
             d="m 262.65401,758.40725 c 1.94212,7.34747 1.67745,9.05671 0.32873,7.99626 -3.87816,-3.95318 -3.88131,-10.51195 -2.74795,-14.88772 l -2.27027,13.80498 c -1.89189,-2.11847 -2.27027,-11.21031 -4.16216,-20.84282 l -1.8919,20.57213 -3.02702,-14.07567 c -0.56748,4.33098 0.71077,8.66196 -4.54054,12.99293 -2.83498,-1.64256 -3.97482,-5.30625 -3.78378,-10.55676 l -1.8919,10.01539 -3.4054,-20.03076 c 0.0664,9.12663 -0.57233,23.0594 0.37838,20.84282 l -1.51352,2.16548 c -3.17962,-3.57275 -3.30503,-8.77611 -3.78378,-12.99293 l -0.37838,10.82745 -5.67567,-21.3842 c 1.1303,6.82961 3.2167,13.20323 1.51351,21.3842 -3.69217,-3.14977 -5.76696,-6.68523 -6.43243,-10.55676 l 0.37838,10.01539 -7.56757,-28.69272 c 1.15394,9.38379 3.66441,18.76756 3.02703,28.15134 -1.51351,-1.63191 -3.02703,-5.78262 -4.54054,-9.47401 l 0.75676,8.66196 -4.91892,-17.32391 c 0.56215,6.35296 3.51721,12.99122 -1.51352,18.67734 -2.42786,-2.03041 -4.62807,-5.03801 -6.05405,-11.36882 0.0702,4.97274 1.0316,11.37538 0.16215,15.00374 l 0,2.86154 73,0 -9.44564,-11.78587 0,0 z"
             style="fill:#d3d7cf;fill-opacity:1;fill-rule:evenodd;stroke:none" />
          <path
             inkscape:connector-curvature="0"
             style="fill:#d3d7cf;fill-opacity:1;fill-rule:evenodd;stroke:none"
             d="m 337.14466,766.86802 c 2.0486,-5.93554 5.5475,-16.47213 5.12931,-30.36901 1.10463,9.73819 1.02975,24.63756 -0.38803,28.83955 l 3.46063,-7.64848 c -1.6864,7.55627 -1.45658,9.31408 -0.28545,8.2235 3.36752,-4.06552 3.37025,-10.81068 2.38612,-15.3108 l 1.97134,14.19729 c 1.64278,-2.17868 1.97134,-11.52888 3.61412,-21.43513 l 1.64279,21.15675 2.62844,-14.47567 c 0.49276,4.45405 -0.61718,8.90811 3.94268,13.36216 2.46169,-1.68924 3.45144,-5.45704 3.28556,-10.85676 l 1.64278,10.3 2.95701,-20.59999 c -0.0576,9.38599 0.49697,23.7147 -0.32856,21.43513 l 1.31423,2.22702 -0.4616,4.27954 -32.51137,-0.007 0,-3.31761 z"
             id="path10195"
             sodipodi:nodetypes="cccccccccccccccccccc" />
        </g>
        <g
           transform="matrix(0.9139477,0,0,0.9139477,2042.6687,187.02161)"
           id="g10197"
           style="fill:#d3d7cf;fill-opacity:1">
          <path
             inkscape:connector-curvature="0"
             sodipodi:nodetypes="cccccccccccccccccccccccccccccccc"
             id="path10199"
             d="m 132.76777,767.57327 c -0.65852,-1.7926 2.49963,6.3178 2.01802,-12.57116 0.21148,11.82215 3.575,6.28084 1.94223,11.99228 l 5.73539,-11.39599 c -1.94212,10.27065 -1.92745,12.15991 -0.57873,10.67757 1.87816,-6.02595 3.38131,-4.19413 3.24795,-10.5608 l 1.77027,10.04729 c 1.89189,-2.96131 2.02027,4.57967 3.91216,-8.88513 l 2.1419,9.25675 3.02702,-9.67567 c 0.56748,6.05405 -1.96077,3.10811 3.29054,9.16216 -0.17022,-5.30125 2.21962,-2.16734 2.02858,-9.50676 l 1.1419,9.5 4.1554,-8.49999 1.63514,8.41215 c 3.17962,-4.99417 2.80503,-3.51768 3.28378,-9.41216 l 0.87838,9.38514 2.17567,-12.14189 c -1.1303,9.54676 0.7833,0.70613 2.48649,12.14189 3.69217,-4.40291 4.76696,-3.59495 5.43243,-9.00676 l 0.37162,9 2.81757,-12.1081 c -1.15394,13.11712 1.08559,-1.01577 1.72297,12.10134 1.51351,-2.28116 2.27703,-3.83323 3.79054,-8.99324 l 0.49324,8.10811 2.66892,-10.21621 c -0.56215,8.88048 0.83634,3.82398 2.76352,10.3581 2.42786,-2.8382 4.37807,-1.29238 5.80405,-10.14189 -0.0702,6.95114 -1.0316,7.90106 -0.16215,12.97297 l 0,4 -69.9948,0 0,-4 0,0 z"
             style="fill:#d3d7cf;fill-opacity:1;fill-rule:evenodd;stroke:none" />
          <path
             inkscape:connector-curvature="0"
             style="fill:#d3d7cf;fill-opacity:1;fill-rule:evenodd;stroke:none"
             d="m 269.76777,767.57327 c -0.65852,-1.7926 2.49963,6.3178 2.01802,-12.57116 0.21148,11.82215 3.575,6.28084 1.94223,11.99228 l 5.73539,-11.39599 c -1.94212,10.27065 -1.92745,12.15991 -0.57873,10.67757 1.87816,-6.02595 3.38131,-4.19413 3.24795,-10.5608 l 1.77027,10.04729 c 1.89189,-2.96131 2.02027,4.57967 3.91216,-8.88513 l 2.1419,9.25675 3.02702,-9.67567 c 0.56748,6.05405 -1.96077,3.10811 3.29054,9.16216 -0.17022,-5.30125 2.21962,-2.16734 2.02858,-9.50676 l 1.1419,9.5 4.1554,-8.49999 1.63514,8.41215 c 3.17962,-4.99417 2.80503,-3.51768 3.28378,-9.41216 l 0.87838,9.38514 2.17567,-12.14189 c -1.1303,9.54676 0.7833,0.70613 2.48649,12.14189 3.69217,-4.40291 4.76696,-3.59495 5.43243,-9.00676 l 0.37162,9 2.81757,-12.1081 c -1.15394,13.11712 1.08559,-1.01577 1.72297,12.10134 1.51351,-2.28116 2.27703,-3.83323 3.79054,-8.99324 l 0.49324,8.10811 2.66892,-10.21621 c -0.56215,8.88048 0.83634,3.82398 2.76352,10.3581 2.42786,-2.8382 4.37807,-1.29238 5.80405,-10.14189 -0.0702,6.95114 -1.0316,7.90106 -0.16215,12.97297 l 0,4 -69.9948,0 0,-4 0,0 z"
             id="path10201"
             sodipodi:nodetypes="cccccccccccccccccccccccccccccccc" />
          <path
             inkscape:connector-curvature="0"
             style="fill:#d3d7cf;fill-opacity:1;fill-rule:evenodd;stroke:none"
             d="m 365.76777,767.57327 c -0.65852,-1.7926 2.49963,6.3178 2.01802,-12.57116 0.21148,11.82215 3.575,6.28084 1.94223,11.99228 l 5.73539,-11.39599 c -1.94212,10.27065 -1.92745,12.15991 -0.57873,10.67757 1.87816,-6.02595 3.38131,-4.19413 3.24795,-10.5608 l 1.77027,10.04729 c 1.89189,-2.96131 2.02027,4.57967 3.91216,-8.88513 l 2.1419,9.25675 3.02702,-9.67567 c 0.56748,6.05405 -1.96077,3.10811 3.29054,9.16216 -0.17022,-5.30125 2.21962,-2.16734 2.02858,-9.50676 l 1.1419,9.5 4.1554,-8.49999 1.63514,8.41215 c 3.17962,-4.99417 2.80503,-3.51768 3.28378,-9.41216 l 0.87838,9.38514 2.17567,-12.14189 c -1.1303,9.54676 0.7833,0.70613 2.48649,12.14189 3.69217,-4.40291 4.76696,-3.59495 5.43243,-9.00676 l 0.37162,9 2.81757,-12.1081 c -1.15394,13.11712 1.08559,-1.01577 1.72297,12.10134 1.51351,-2.28116 2.27703,-3.83323 3.79054,-8.99324 l 0.49324,8.10811 2.66892,-10.21621 c -0.56215,8.88048 0.83634,3.82398 2.76352,10.3581 2.42786,-2.8382 4.37807,-1.29238 5.80405,-10.14189 -0.0702,6.95114 -1.0316,7.90106 -0.16215,12.97297 l 0,4 -69.9948,0 0,-4 0,0 z"
             id="path10203"
             sodipodi:nodetypes="cccccccccccccccccccccccccccccccc" />
          <path
             inkscape:connector-curvature="0"
             sodipodi:nodetypes="cccccccccc"
             id="path10205"
             d="m 429.5,768.63375 c 2.35925,-5.95166 6.38872,-16.51688 5.90711,-30.4515 1.27214,9.76464 1.18591,24.70448 -0.44686,28.91788 l 3.98539,-7.66925 c -1.94212,7.57679 -1.67745,9.33938 -0.32873,8.24584 3.87816,-4.07657 2.582,-10.56651 2.74795,-15.35239 l 2.27027,14.23585 c 0.26333,0.63504 0.56108,-7.52671 0.46437,5.02442 l -14.5995,0 z"
             style="fill:#d3d7cf;fill-opacity:1;fill-rule:evenodd;stroke:none" />
          <path
             inkscape:connector-curvature="0"
             sodipodi:nodetypes="cccccccccccccccccccccccccccccc"
             id="path10207"
             d="m 262.65401,759.7874 c 1.94212,7.34747 1.67745,9.05671 0.32873,7.99626 -3.87816,-3.95318 -3.88131,-10.51195 -2.74795,-14.88772 l -2.27027,13.80498 c -1.89189,-2.11847 -2.27027,-11.21031 -4.16216,-20.84282 l -1.8919,20.57213 -3.02702,-14.07567 c -0.56748,4.33098 0.71077,8.66196 -4.54054,12.99293 -2.83498,-1.64256 -3.97482,-5.30625 -3.78378,-10.55676 l -1.8919,10.01539 -3.4054,-20.03076 c 0.0664,9.12663 -0.57233,23.0594 0.37838,20.84282 l -1.51352,2.16548 c -3.17962,-3.57275 -3.30503,-8.77611 -3.78378,-12.99293 l -0.37838,10.82745 -5.67567,-21.3842 c 1.1303,6.82961 3.2167,13.20323 1.51351,21.3842 -3.69217,-3.14977 -5.76696,-6.68523 -6.43243,-10.55676 l 0.37838,10.01539 -7.56757,-28.69272 c 1.15394,9.38379 3.66441,18.76756 3.02703,28.15134 -1.51351,-1.63191 -3.02703,-5.78262 -4.54054,-9.47401 l 0.75676,8.66196 -4.91892,-17.32391 c 0.56215,6.35296 3.51721,12.99122 -1.51352,18.67734 -2.42786,-2.03041 -4.62807,-5.03801 -6.05405,-11.36882 0.0702,4.97274 1.0316,11.37538 0.16215,15.00374 l 0,2.86154 73,0 -9.44564,-11.78587 0,0 z"
             style="fill:#d3d7cf;fill-opacity:1;fill-rule:evenodd;stroke:none" />
          <path
             inkscape:connector-curvature="0"
             style="fill:#d3d7cf;fill-opacity:1;fill-rule:evenodd;stroke:none"
             d="m 337.14466,768.24817 c 2.0486,-5.93554 5.5475,-16.47213 5.12931,-30.36901 1.10463,9.73819 1.02975,24.63756 -0.38803,28.83955 l 3.46063,-7.64847 c -1.6864,7.55627 -1.45658,9.31408 -0.28545,8.22349 3.36752,-4.06552 3.37025,-10.81068 2.38612,-15.3108 l 1.97134,14.19729 c 1.64278,-2.17868 1.97134,-11.52888 3.61412,-21.43513 l 1.64279,21.15675 2.62844,-14.47567 c 0.49276,4.45405 -0.61718,8.90811 3.94268,13.36216 2.46169,-1.68924 3.45144,-5.45704 3.28556,-10.85676 l 1.64278,10.3 2.95701,-20.59999 c -0.0576,9.38599 0.49697,23.7147 -0.32856,21.43513 l 1.31423,2.22702 -0.4616,4.27954 -32.51137,0.011 0,-3.33607 z"
             id="path10209"
             sodipodi:nodetypes="cccccccccccccccccccc" />
        </g>
      </g>
      <path
         style="fill:#d3d7cf;fill-opacity:1;fill-rule:evenodd;stroke:none"
         d="m 878.38022,-507.45656 c -0.60185,-1.63834 2.28453,5.77414 1.84436,-11.48938 0.19328,10.80482 3.26737,5.74036 1.7751,10.96031 l 5.24185,-10.41534 c -1.775,9.38684 -1.76159,11.11353 -0.52893,9.75875 1.71654,-5.50741 3.09034,-3.83322 2.96845,-9.65202 l 1.61794,9.18269 c 1.72909,-2.70648 1.84642,4.18558 3.57551,-8.12054 l 1.95758,8.46019 2.76654,-8.84306 c 0.51865,5.53308 -1.79204,2.84065 3.00738,8.37373 -0.15557,-4.84506 2.02862,-1.98083 1.85402,-8.68868 l 1.04363,8.68251 3.79782,-7.76855 1.49443,7.68826 c 2.90601,-4.56441 2.56366,-3.21497 3.00121,-8.60222 l 0.80279,8.57753 1.98845,-11.09705 c -1.03304,8.72524 0.7159,0.64536 2.27252,11.09705 3.37445,-4.02403 4.35675,-3.2856 4.96496,-8.23171 l 0.33964,8.22553 2.57511,-11.06617 c -1.05464,11.98836 0.99217,-0.92836 1.57471,11.05999 1.38327,-2.08486 2.08108,-3.50337 3.46435,-8.21935 l 0.4508,7.41039 2.43925,-9.33708 c -0.51378,8.11629 0.76437,3.49492 2.52571,9.46676 2.21894,-2.59397 4.00133,-1.18117 5.3046,-9.26916 -0.0642,6.35298 -0.94283,7.22116 -0.1482,11.85662 l 0,3.65579 -63.97158,0 0,-3.65579 0,0 z"
         id="path10211"
         sodipodi:nodetypes="cccccccccccccccccccccccccccccccc"
         inkscape:connector-curvature="0" />
    </g>
    <path
       inkscape:connector-curvature="0"
       id="path3000-2"
       d="m -1525.7586,-148.71945 0.2333,2.4375 c 0.3976,3.7924 1.9885,6.7068 4.4904,8.3125 1.1413,0.7325 2.7774,1.5096 3.6447,1.7188 0.8673,0.2091 2.1159,0.3818 2.77,0.4062 l 1.1955,0.062 -0.3207,-2.5 c -0.174,-1.3632 -0.551,-3.0881 -0.8456,-3.8437 -1.3549,-3.4756 -4.8024,-5.9064 -9.039,-6.375 z m 15.1622,11.2813 0,37.999901 0,37.437501 2.6826,0 0,-37.437501 0,-37.999901 -1.3413,0 z m 17.0575,1.2812 c -0.4828,-0.02 -1.2793,0.1978 -2.6242,0.5 -4.7819,1.0745 -7.938,4.3766 -8.485,8.9375 -0.1228,1.0239 -0.2867,2.2669 -0.3791,2.75 -0.1558,0.8193 -0.042,0.8841 1.662,0.6875 6.1621,-0.7112 9.7004,-4.2778 10.322,-10.3437 0.1886,-1.841 0.309,-2.4981 -0.4957,-2.5313 z m -32.2197,11.4063 0.2625,2.4375 c 0.41,3.8263 1.9722,6.715 4.4612,8.3125 1.1413,0.7324 2.7774,1.5095 3.6447,1.7187 0,0.9527 2.0697,0.3819 2.6826,0.4063 l 1.108,0.062 -0.2042,-2.2813 c -0.6008,-6.2397 -3.7437,-9.4699 -10.1178,-10.4062 l -1.837,-0.25 z m 33.007,12.4687 -1.6912,0.2813 c -2.9495,0.4567 -4.3744,0.9464 -6.1524,2.1562 -2.0088,1.367 -3.6972,4.3282 -4.0529,7.125 -0.1285,1.0098 -0.3064,2.2794 -0.4082,2.812496 -0.1771,0.927605 -0.1265,0.946805 1.4579,0.687505 6.8155,-1.115101 9.9675,-4.269301 10.5843,-10.593801 z m 127.1874,2.9688 c -0.068,0.087 -1.13,2.2186 -2.3618,4.7187 -7.1138,14.437401 -10.6687,19.460201 -15.0164,21.187501 -3.1406,1.2478 -7.2381,2.1274 -10.0304,2.1562 l -2.3035,0.031 1.2247,1.125 c 4.0939,3.7479 14.7349,8.3326 20.9646,9.031301 l 2.1869,0.25 -0.2042,1.75 c -0.3424,3.2558 1.4152,5.3327 5.5984,6.6562 0.4542,0.1438 0.8276,0.2768 1.1663,0.4063 l 1.837,0 c -0.3985,-0.2799 -1.409,-0.7238 -2.5951,-1.125 -3.4962,-1.1826 -4.9061,-2.4487 -5.1901,-4.7188 -0.3096,-2.474 0.2476,-3.2701 2.77,-3.875001 5.5429,-1.3295 12.3441,-6.6285 14.7248,-11.4687 1.9481,-3.9609 2.2342,-6.6309 1.1955,-11.25 -0.068,-0.3038 1.4522,-1.4861 3.5281,-2.75 3.3557,-2.0432 3.5452,-2.2443 2.6825,-2.593805 -0.5137,-0.208 -3.9378,-1.530296 -7.6102,-2.937496 -5.0374,-1.9302 -7.3914,-3.0765 -9.5638,-4.6562 -1.5837,-1.1516 -2.9359,-2.0243 -3.0033,-1.9375 z m -172.0325,4 -1.5746,0.2499 c -2.14,0.3669 -4.3877,1.6456 -5.3067,3.0313 -0.7846,1.1831 -1.6037,3.881801 -1.6037,5.250001 0,0.6895 0.1978,0.7322 1.7786,0.5 3.9618,-0.582 6.7064,-3.593005 6.7064,-7.406301 l 0,-1.625 z m -22.3351,2.5624 c -0.843,-0.019 -0.8373,0.5854 -0.6707,2.0938 0.3785,3.424301 2.0678,5.595401 5.1611,6.593701 0.5802,0.1872 1.5453,0.3555 2.1285,0.375 0.8529,0.029 1.0497,-0.127 1.0497,-0.875 -0.01,-3.4692 -2.1087,-6.609501 -5.1027,-7.562501 -1.2406,-0.3949 -2.0601,-0.6137 -2.5659,-0.625 z m 10.7594,6.218801 c -0.759,0 -0.7581,0.275 -0.7581,17.5625 l 0,16.968701 1.5453,0 0,-16.968701 c 0,-17.2875 -0.028,-17.5625 -0.7872,-17.5625 z m 11.5757,6.5 -1.5746,0.2812 c -2.14,0.3669 -4.3877,1.6456 -5.3067,3.0313 -0.771,1.1626 -1.6037,3.8379 -1.6037,5.1562 0,1.3454 3.5554,0.7034 5.9191,-1.0625 1.3686,-1.0224 2.5547,-3.687 2.5659,-5.8125 z m 11.8381,5.3437 0.2333,2.4375 c 0.3976,3.7925 1.9885,6.7381 4.4904,8.3438 1.1413,0.7326 2.7774,1.4784 3.6447,1.6875 0.8673,0.2091 2.1159,0.4135 2.77,0.4375 l 1.1955,0.031 -0.3207,-2.4688 c -0.174,-1.3633 -0.6012,-3.1784 -0.9331,-4.0312 -1.304,-3.3509 -4.7307,-5.7206 -8.9515,-6.1875 l -2.1286,-0.25 z m -34.9896,4.8125 0,1.5 c 0,1.8674 1.4067,4.8736 2.77,5.9375 0.5658,0.4414 3.9479,1.343801 2.8867,1.343801 2.6679,0.7685 2.8283,0.7272 2.8283,-0.5938 0,-4.185801 -2.6011,-7.204601 -6.823,-7.906201 z"
       style="fill:#d3d7cf;fill-opacity:1"
       sodipodi:nodetypes="cscccccccccccccccccccccccccccccccccccccccccccccccccccccccccccsscccccscscccscccscscccsscccsccccccscccccccccccsccc" />
  </g>
</svg>
